<svg version="1.1" id="Layer_1" xmlns="http://www.w3.org/2000/svg" xmlns:xlink="http://www.w3.org/1999/xlink" x="0px" y="0px"
	 width="100%" viewBox="0 0 65 58" enable-background="new 0 0 65 58" xml:space="preserve">
<path fill="#1A1A1A" opacity="1.000000" stroke="none" 
	d="
M42.272346,58.729500 
	C40.933331,59.000000 39.866661,59.000000 38.399994,59.000000 
	C37.270477,58.267452 36.372009,58.535088 35.255615,58.789803 
	C31.638712,59.000000 28.277426,59.000000 24.458069,59.000000 
	C16.557240,54.360027 10.691093,47.700264 3.374167,42.900867 
	C2.137583,42.089752 2.145982,40.622101 1.238180,39.257805 
	C1.000000,33.645069 1.000000,28.290140 1.000000,22.467606 
	C2.652823,18.252531 5.553801,15.622249 8.728606,13.191060 
	C11.858600,10.794187 15.177796,8.658935 17.823849,5.616058 
	C19.777182,3.369789 22.397688,1.884398 25.736675,1.237776 
	C30.689257,1.000000 35.378513,1.000000 40.533882,1.000000 
	C49.998833,6.841137 59.088661,12.573381 65.758896,21.744717 
	C66.000000,23.066669 66.000000,24.133339 66.000000,25.600004 
	C64.686409,29.567293 66.210762,33.373447 65.045471,37.343334 
	C63.544853,44.790989 57.569771,47.978756 48.858639,46.021629 
	C48.346928,45.722023 48.164257,45.574520 47.809273,45.129501 
	C47.744915,43.362576 48.318142,41.791294 46.493393,40.464073 
	C44.326401,38.717453 42.147823,37.559849 40.309071,35.889412 
	C38.543518,34.285473 37.068909,32.281075 34.264011,31.099169 
	C38.333515,34.668934 42.150066,37.685680 46.479431,40.639168 
	C47.375858,41.747437 47.705292,42.685356 47.561119,44.149483 
	C48.446373,46.533806 48.573002,48.634773 48.377808,51.169739 
	C47.673340,54.922646 45.207680,56.773830 42.272346,58.729500 
z"/>
<path fill="#020202" opacity="1.000000" stroke="none" 
	d="
M47.979713,45.255711 
	C54.801498,46.009731 60.674149,45.520199 63.972900,38.308388 
	C64.405663,37.603054 64.865776,37.469498 65.695389,37.779762 
	C66.000000,44.106056 65.836098,50.218666 66.080040,56.314960 
	C66.178673,58.779896 65.463333,59.116821 63.234367,59.061138 
	C56.472416,58.892227 49.703556,59.000000 42.468693,59.000000 
	C41.797333,55.557076 45.990967,55.304085 46.861366,52.211952 
	C48.078033,49.835155 47.144146,47.582977 47.979713,45.255711 
z"/>
<path fill="#010101" opacity="1.000000" stroke="none" 
	d="
M66.000000,21.531088 
	C61.064453,20.107758 58.456722,15.375086 54.405510,12.319995 
	C49.914104,8.932949 44.654633,6.324252 41.068241,1.339061 
	C48.592896,1.000000 56.187012,1.073802 63.777813,0.947717 
	C65.657829,0.916490 66.091339,1.389421 66.049759,3.236501 
	C65.916061,9.175756 66.000000,15.119911 66.000000,21.531088 
z"/>
<path fill="#010101" opacity="1.000000" stroke="none" 
	d="
M25.531321,1.000000 
	C25.871950,3.395195 23.367764,2.627747 22.325872,3.753130 
	C16.064215,10.516564 7.748544,14.937118 1.335425,21.951944 
	C1.000000,15.892609 1.166505,9.778459 0.918985,3.681116 
	C0.818367,1.202520 1.554793,0.889616 3.770670,0.940042 
	C10.864775,1.101480 17.964863,1.000000 25.531321,1.000000 
z"/>
<path fill="#020202" opacity="1.000000" stroke="none" 
	d="
M1.000000,39.469044 
	C9.031406,44.964634 17.112106,50.870899 23.942413,58.663002 
	C17.072155,59.000000 10.142751,58.919209 3.217492,59.053040 
	C1.329728,59.089527 0.906590,58.599758 0.950936,56.761669 
	C1.086163,51.156677 1.000000,45.546341 1.000000,39.469044 
z"/>
<path fill="#CACACA" opacity="1.000000" stroke="none" 
	d="
M66.000000,37.539364 
	C65.561058,37.999336 65.122116,37.998669 64.346817,37.979103 
	C65.616035,34.219273 64.731300,30.216181 65.615891,26.179459 
	C66.000000,29.692909 66.000000,33.385818 66.000000,37.539364 
z"/>
<path fill="#8F8E8E" opacity="1.000000" stroke="none" 
	d="
M35.375000,59.000000 
	C35.618427,57.535267 36.618950,57.906864 37.827335,58.723812 
	C37.250000,59.000000 36.500000,59.000000 35.375000,59.000000 
z"/>
<path fill="#F9F9F9" opacity="1.000000" stroke="none" 
	d="
M52.572464,16.408627 
	C54.801212,18.193377 56.851933,19.643843 58.678604,21.336145 
	C63.089191,25.422287 62.334064,31.002886 57.343616,34.362019 
	C55.229290,35.785202 54.279682,34.365192 53.072739,33.432091 
	C47.412773,29.056293 41.725048,24.709440 36.218029,20.146137 
	C33.963398,18.277874 32.465321,17.918726 29.994419,20.058760 
	C24.845842,24.517916 19.305532,28.525419 13.916857,32.706482 
	C10.217760,35.576599 6.675682,34.527206 5.037798,29.967953 
	C3.769975,26.438812 4.713407,23.389933 7.639172,21.067823 
	C13.500661,16.415710 19.313927,11.693286 25.335508,7.255540 
	C29.937662,3.863874 36.299042,4.127631 41.227318,7.672812 
	C45.002899,10.388798 48.610329,13.338546 52.572464,16.408627 
z"/>
<path fill="#F8F8F8" opacity="1.000000" stroke="none" 
	d="
M25.194159,47.138321 
	C23.572741,45.891361 22.274397,44.852524 20.968403,43.823395 
	C12.886778,37.455040 13.089708,35.966091 22.358723,30.668598 
	C23.902206,29.786457 24.709435,30.206633 25.831495,31.091108 
	C31.050646,35.205166 36.282612,39.303974 41.564648,43.336651 
	C43.245407,44.619862 43.143970,45.537052 41.453129,46.684566 
	C36.257572,50.210587 30.961159,50.343266 25.194159,47.138321 
z"/>
<path fill="#EBEBEB" opacity="1.000000" stroke="none" 
	d="
M46.094460,41.676819 
	C41.263866,38.510483 36.784855,35.168278 32.363728,31.751181 
	C31.567511,31.135784 30.053629,30.538382 31.305834,29.070961 
	C32.348511,27.849073 33.396378,27.857378 34.678097,28.965446 
	C38.714077,32.454609 42.842373,35.836990 47.028023,39.605507 
	C47.057156,40.525009 46.838657,41.033310 46.094460,41.676819 
z"/>
<path fill="#DDDDDD" opacity="1.000000" stroke="none" 
	d="
M45.827698,42.113056 
	C45.989159,41.415337 46.255260,40.952347 46.821239,40.219833 
	C49.968689,40.239277 51.244766,41.178371 48.403038,43.917801 
	C47.921234,44.287197 47.712135,44.446972 47.388149,44.229099 
	C46.826290,43.350231 46.379314,42.849007 45.827698,42.113056 
z"/>
<path fill="#8D8D8D" opacity="1.000000" stroke="none" 
	d="
M47.165607,44.289810 
	C47.273266,43.851456 47.758499,43.813328 47.944420,43.970375 
	C48.130337,44.127426 48.318855,44.568687 48.326614,44.808483 
	C48.148575,47.232311 47.962776,49.416344 47.399887,51.750820 
	C47.034515,49.510231 47.046234,47.119198 47.165607,44.289810 
z"/>
</svg>